<svg xmlns="http://www.w3.org/2000/svg" viewBox="0 0 500 500">
  <!-- Fond transparent -->
  <rect width="500" height="500" fill="none"/>
  
  <!-- Fenêtre -->
  <g transform="translate(80, 80) scale(0.9)">
    <rect width="80" height="80" rx="10" fill="#00353f" stroke-width="4"/>
    <rect x="5" y="5" width="32" height="32" rx="2" fill="#f17949"/>
    <rect x="43" y="5" width="32" height="32" rx="2" fill="#ffc13c"/>
    <rect x="5" y="43" width="32" height="32" rx="2" fill="#4ab0bd"/>
    <rect x="43" y="43" width="32" height="32" rx="2" fill="#4c9eeb"/>
  </g>
  
  <!-- Lettre A -->
  <g transform="translate(80, 160) scale(0.9)">
    <path d="M60,10 L90,100 H75 L67,80 H33 L25,100 H10 L40,10 H60 Z" fill="#f17949" stroke="#00353f" stroke-width="6"/>
    <path d="M50,50 L62,75 H38 Z" fill="#00353f"/>
  </g>
  
  <!-- Personnage avec écouteurs -->
  <g transform="translate(220, 90) scale(1.1)">
    <!-- Écouteurs -->
    <path d="M0,50 A80,80 0 0,1 160,50" fill="none" stroke="#00353f" stroke-width="14"/>
    <ellipse cx="0" cy="50" rx="15" ry="20" fill="#f17949" stroke="#00353f" stroke-width="6"/>
    <ellipse cx="160" cy="50" rx="15" ry="20" fill="#f17949" stroke="#00353f" stroke-width="6"/>
    
    <!-- Tête -->
    <circle cx="80" cy="80" r="60" fill="#ffffff" stroke="#00353f" stroke-width="10"/>
    
    <!-- Yeux -->
    <circle cx="60" cy="70" r="6" fill="#00353f"/>
    <circle cx="100" cy="70" r="6" fill="#00353f"/>
    
    <!-- Joues -->
    <circle cx="50" cy="90" r="10" fill="#f9b8a5"/>
    <circle cx="110" cy="90" r="10" fill="#f9b8a5"/>
    
    <!-- Sourire -->
    <path d="M60,100 Q80,120 100,100" fill="none" stroke="#00353f" stroke-width="6" stroke-linecap="round"/>
    
    <!-- Corps -->
    <path d="M40,140 Q80,180 120,140" fill="#ffffff" stroke="#00353f" stroke-width="10" stroke-linecap="round"/>
  </g>
  
  <!-- Fleur -->
  <g transform="translate(360, 90) scale(0.8)">
    <!-- Tige -->
    <path d="M60,100 C60,150 60,180 60,210" fill="none" stroke="#00353f" stroke-width="8"/>
    <path d="M60,150 C40,160 30,180 60,190" fill="#4da770" stroke="#00353f" stroke-width="4"/>
    
    <!-- Fleur -->
    <circle cx="60" cy="80" r="30" fill="#ffc13c" stroke="#00353f" stroke-width="6"/>
    
    <!-- Pétales -->
    <path d="M60,50 A15,15 0 0,1 80,40 A15,15 0 0,1 90,55 A15,15 0 0,1 80,70 A15,15 0 0,1 60,50" fill="#f17949" stroke="#00353f" stroke-width="4"/>
    <path d="M60,50 A15,15 0 0,0 40,40 A15,15 0 0,0 30,55 A15,15 0 0,0 40,70 A15,15 0 0,0 60,50" fill="#f17949" stroke="#00353f" stroke-width="4"/>
    <path d="M60,110 A15,15 0 0,0 80,100 A15,15 0 0,0 90,85 A15,15 0 0,0 80,70 A15,15 0 0,0 60,110" fill="#f17949" stroke="#00353f" stroke-width="4"/>
    <path d="M60,110 A15,15 0 0,1 40,100 A15,15 0 0,1 30,85 A15,15 0 0,1 40,70 A15,15 0 0,1 60,110" fill="#f17949" stroke="#00353f" stroke-width="4"/>
    
    <!-- Visage -->
    <circle cx="55" cy="75" r="3" fill="#00353f"/>
    <circle cx="65" cy="75" r="3" fill="#00353f"/>
    <path d="M55,85 Q60,90 65,85" fill="none" stroke="#00353f" stroke-width="2" stroke-linecap="round"/>
  </g>
  
  <!-- Crayon -->
  <g transform="translate(400, 180) rotate(30) scale(0.9)">
    <path d="M0,0 L20,0 L20,80 L10,90 L0,80 Z" fill="#4c9eeb" stroke="#00353f" stroke-width="4"/>
    <path d="M0,0 L20,0 L20,15 L0,15 Z" fill="#00353f" stroke="#00353f" stroke-width="2"/>
    <path d="M10,90 L7,100 L13,100 Z" fill="#00353f" stroke="#00353f" stroke-width="1"/>
  </g>
  
  <!-- Texte SMART KID -->
  <g transform="translate(80, 350)">
    <!-- SMART -->
    <path d="M0,0 C10,-5 20,-5 30,0 C40,5 40,15 30,20 L10,30 C0,35 0,45 10,50 C20,55 30,55 40,50" fill="none" stroke="#00353f" stroke-width="10" stroke-linecap="round"/>
    <path d="M60,0 C70,10 80,20 70,30 C60,40 60,45 80,50" fill="none" stroke="#00353f" stroke-width="10" stroke-linecap="round"/>
    <path d="M100,0 L120,0 L110,25 L130,50" fill="none" stroke="#00353f" stroke-width="10" stroke-linecap="round"/>
    <path d="M100,0 L90,25 L110,25" fill="none" stroke="#00353f" stroke-width="10" stroke-linecap="round"/>
    <path d="M140,0 L140,50" fill="none" stroke="#00353f" stroke-width="10" stroke-linecap="round"/>
    <path d="M140,0 L170,25 L140,50" fill="none" stroke="#00353f" stroke-width="10" stroke-linecap="round"/>
    <path d="M180,0 L180,50 L210,0 L210,50" fill="none" stroke="#00353f" stroke-width="10" stroke-linecap="round"/>
    
    <!-- KID -->
    <path d="M110,80 L110,130" fill="none" stroke="#00353f" stroke-width="10" stroke-linecap="round"/>
    <path d="M110,80 L140,80" fill="none" stroke="#00353f" stroke-width="10" stroke-linecap="round"/>
    <path d="M140,80 L140,130" fill="none" stroke="#00353f" stroke-width="10" stroke-linecap="round"/>
    <path d="M160,80 L160,130" fill="none" stroke="#00353f" stroke-width="10" stroke-linecap="round"/>
    <path d="M160,105 L180,85" fill="none" stroke="#00353f" stroke-width="10" stroke-linecap="round"/>
    <path d="M160,105 L180,125" fill="none" stroke="#00353f" stroke-width="10" stroke-linecap="round"/>
    <path d="M200,80 Q220,80 220,105 Q220,130 200,130 L200,80" fill="none" stroke="#00353f" stroke-width="10" stroke-linecap="round"/>
  </g>
</svg>